<?xml version="1.0" encoding="iso-8859-1"?>
<!-- Generator: Adobe Illustrator 19.0.0, SVG Export Plug-In . SVG Version: 6.00 Build 0)  -->
<svg version="1.1" id="Layer_1" xmlns="http://www.w3.org/2000/svg" xmlns:xlink="http://www.w3.org/1999/xlink" x="0px" y="0px"
	 viewBox="0 0 512.001 512.001" style="enable-background:new 0 0 512.001 512.001;" xml:space="preserve">
<g>
	<g>
		<g>
			<path d="M421.196,0H90.805C80.46,0,72.074,8.387,72.074,18.731v52.151c0,6.897,5.591,12.487,12.487,12.487H427.44
				c6.897,0,12.487-5.591,12.487-12.487V18.731C439.928,8.387,431.541,0,421.196,0z"/>
			<path d="M427.44,108.343H84.561c-6.897,0.001-12.487,5.592-12.487,12.489v371.971c0,17.545,20.387,25.287,31.975,13.695
				l151.952-151.951l151.951,151.949c11.51,11.515,31.977,3.989,31.977-13.731V120.831
				C439.928,113.934,434.337,108.343,427.44,108.343z"/>
		</g>
	</g>
</g>
<g>
</g>
<g>
</g>
<g>
</g>
<g>
</g>
<g>
</g>
<g>
</g>
<g>
</g>
<g>
</g>
<g>
</g>
<g>
</g>
<g>
</g>
<g>
</g>
<g>
</g>
<g>
</g>
<g>
</g>
</svg>
