<?xml version="1.0" encoding="iso-8859-1"?>
<!-- Generator: Adobe Illustrator 18.0.0, SVG Export Plug-In . SVG Version: 6.00 Build 0)  -->
<!DOCTYPE svg PUBLIC "-//W3C//DTD SVG 1.1//EN" "http://www.w3.org/Graphics/SVG/1.1/DTD/svg11.dtd">
<svg version="1.1" id="Capa_1" xmlns="http://www.w3.org/2000/svg" xmlns:xlink="http://www.w3.org/1999/xlink" x="0px" y="0px"
	 viewBox="0 0 471.793 471.793" style="enable-background:new 0 0 471.793 471.793;" xml:space="preserve">
<g id="XMLID_236_">
	<path id="XMLID_244_" d="M382.133,124.893c17.222,0,31.195-13.966,31.195-31.187c0-17.244-13.974-31.194-31.195-31.194
		c-17.228,0-31.202,13.95-31.202,31.194C350.931,110.927,364.905,124.893,382.133,124.893z"/>
	<path id="XMLID_243_" d="M465.71,236.325l-44.477-97.452c-2.428-5.316-7.898-8.121-13.39-7.599
		c-0.637-0.084-50.025-0.253-50.262-0.238l-28.506-11.077l-32.451-47.596c-4.137-6.075-12.426-7.661-18.538-3.508
		c-6.083,4.152-7.661,12.449-3.502,18.539l34.779,51.021c1.525,2.229,3.678,3.945,6.189,4.917l28.767,11.177
		c0,63.654-0.015,72.471-0.03,112.191l18.944,41.505c6.282,13.752,0.224,29.993-13.536,36.267c-1.77,0.811-3.585,1.401-5.416,1.808
		c0,6.335,0,12.939,0,20.086c0,8.839,7.162,16.011,16.003,16.011c8.849,0,16.011-7.171,16.011-16.011v-95.414h11.676v95.414
		c0,8.839,7.162,16.011,16.003,16.011c8.849,0,16.011-7.171,16.011-16.011c0-88.259-0.045-137.579-0.045-166.069l21.503,47.105
		c3.033,6.643,10.917,9.676,17.672,6.598C465.819,250.941,468.769,243.027,465.71,236.325z"/>
	<path id="XMLID_242_" d="M351.43,313.599l-47.995-105.136c-2.612-5.73-8.503-8.749-14.425-8.198
		c-0.697-0.099-54.828-0.099-55.509-0.006c-5.931-0.56-11.836,2.466-14.441,8.204l-47.987,105.136
		c-3.302,7.231-0.116,15.766,7.117,19.067c7.178,3.295,15.75,0.162,19.066-7.116l23.204-50.844l-0.045,179.818
		c0,9.538,7.73,17.269,17.268,17.269c9.537,0,17.268-7.73,17.268-17.269V350.959h12.601v103.565c0,9.538,7.73,17.269,17.275,17.269
		c9.538,0,17.267-7.73,17.267-17.269l-0.046-179.803l23.196,50.828c3.318,7.278,11.882,10.411,19.068,7.116
		C351.544,329.365,354.731,320.83,351.43,313.599z"/>
	<path id="XMLID_241_" d="M114.376,112.344c-19.366,0-35.055,15.689-35.055,35.063c0,19.358,15.688,35.048,35.055,35.048
		c19.358,0,35.056-15.689,35.056-35.048C149.432,128.033,133.735,112.344,114.376,112.344z"/>
	<path id="XMLID_238_" d="M198.873,174.135c1.823-1.762,3.18-3.96,3.914-6.389l15.644-50.998c1.35-4.39,0.43-8.802-1.853-12.38
		c4.281-2.681,7.293-7.231,7.293-12.655V15.176C223.871,6.795,217.076,0,208.695,0H20.05C11.677,0,4.874,6.795,4.874,15.176v76.538
		c0,5.424,3.011,9.974,7.293,12.655c-2.283,3.578-3.194,7.99-1.853,12.38l15.643,50.998c0.743,2.429,2.092,4.626,3.923,6.389
		l41.996,40.511c0,156.055-0.039,48.522-0.039,239.158c0,9.936,8.052,17.988,17.987,17.988c9.937,0,17.987-8.053,17.987-17.988
		V346.601h13.123v107.204c0,9.936,8.051,17.988,17.987,17.988c9.936,0,17.987-8.053,17.987-17.988
		c0-172.519-0.038-66.647-0.038-239.158L198.873,174.135z M140.055,189.205H88.698l-35.216-33.961l-14.51-47.297
		c-0.122-0.398-0.421-0.674-0.574-1.049h151.95c-0.154,0.375-0.452,0.651-0.574,1.049l-14.51,47.297L140.055,189.205z"/>
	<path id="XMLID_237_" d="M261.255,193.372c18.585,0,33.653-15.061,33.653-33.645c0-18.601-15.068-33.654-33.653-33.654
		c-18.592,0-33.661,15.054-33.661,33.654C227.594,178.31,242.663,193.372,261.255,193.372z"/>
</g>
<g>
</g>
<g>
</g>
<g>
</g>
<g>
</g>
<g>
</g>
<g>
</g>
<g>
</g>
<g>
</g>
<g>
</g>
<g>
</g>
<g>
</g>
<g>
</g>
<g>
</g>
<g>
</g>
<g>
</g>
</svg>
