<?xml version="1.0" encoding="iso-8859-1"?>
<!-- Generator: Adobe Illustrator 19.0.0, SVG Export Plug-In . SVG Version: 6.00 Build 0)  -->
<svg version="1.1" id="Layer_1" xmlns="http://www.w3.org/2000/svg" xmlns:xlink="http://www.w3.org/1999/xlink" x="0px" y="0px"
	 viewBox="0 0 512 512" style="enable-background:new 0 0 512 512;" xml:space="preserve">
<polygon style="fill:#FEBB8E;" points="60.189,321.076 60.189,497.479 113.971,497.479 124.727,321.076 "/>
<g>
	<rect x="113.974" y="321.076" style="fill:#FEAB75;" width="25.815" height="176.403"/>
	<path style="fill:#FEAB75;" d="M69.378,150.05c7.129,0,12.908,5.778,12.908,12.908l21.717,138.354H45.714l10.756-71.666v-66.689
		C56.471,155.829,62.249,150.05,69.378,150.05z"/>
</g>
<path style="fill:#FCD5A2;" d="M131.765,175.866c0-7.129,5.778-12.908,12.908-12.908c7.128,0,12.908,5.778,12.908,12.908v75.294
	l-58.391,41.343L131.765,175.866z"/>
<path style="fill:#FEAB75;" d="M103.798,162.958c0-7.129,5.779-12.908,12.908-12.908c7.129,0,12.908,5.778,12.908,12.908v138.354
	H82.081L103.798,162.958z"/>
<path style="fill:#FCD5A2;" d="M95.193,137.143c7.129,0,12.908,5.779,12.908,12.908v149.214H82.286V150.049
	C82.286,142.921,88.064,137.143,95.193,137.143z"/>
<path style="fill:#FEBB8E;" d="M54.319,246.857l-21.513,43.025l66.689,85.729c32.612-3.238,58.084-30.75,58.084-64.215
	c0-35.643,0-64.538,0-64.538H54.319V246.857z"/>
<path style="fill:#FCD5A2;" d="M94.118,374.857c2.178,0,4.33-0.112,6.454-0.323v-40.549c0-24.951-20.225-45.18-45.176-45.18v-64.538
	c0-7.129-5.779-12.908-12.908-12.908s-12.908,5.778-12.908,12.908v86.05C29.58,345.962,58.474,374.857,94.118,374.857z"/>
<polygon style="fill:#A0613C;" points="368.987,256.538 368.987,497.479 422.769,497.479 433.525,256.538 "/>
<g>
	<rect x="422.766" y="256.538" style="fill:#804E30;" width="25.815" height="240.941"/>
	<path style="fill:#804E30;" d="M441.546,85.513c-7.129,0-12.908,5.778-12.908,12.908l-21.717,138.354h58.288l-10.756-71.666V98.419
		C454.454,91.291,448.676,85.513,441.546,85.513z"/>
</g>
<path style="fill:#A0613C;" d="M377.008,111.327c0-7.128-5.778-12.908-12.908-12.908s-12.908,5.779-12.908,12.908v75.295
	l58.391,41.343L377.008,111.327z"/>
<path style="fill:#804E30;" d="M406.05,98.42c0-7.129-5.779-12.908-12.908-12.908c-7.129,0-12.908,5.778-12.908,12.908v138.354
	h47.532L406.05,98.42z"/>
<path style="fill:#A0613C;" d="M415.731,72.605c-7.129,0-12.908,5.779-12.908,12.908v149.214h25.815V85.512
	C428.639,78.383,422.859,72.605,415.731,72.605z"/>
<path style="fill:#BF7447;" d="M454.454,181.244l21.513,43.025l-66.689,85.729c-32.612-3.238-58.084-30.75-58.084-64.215
	c0-35.643,0-64.538,0-64.538h103.26V181.244z"/>
<path style="fill:#DF8853;" d="M415.731,310.319c-2.178,0-4.33-0.112-6.454-0.323v-40.549c0-24.951,20.225-45.18,45.176-45.18
	V159.73c0-7.129,5.779-12.908,12.908-12.908c7.129,0,12.908,5.778,12.908,12.908v86.05
	C480.269,281.425,451.374,310.319,415.731,310.319z"/>
<polygon style="fill:#FEAB75;" points="214.588,192 214.588,497.479 268.37,497.479 279.126,192 "/>
<g>
	<rect x="268.37" y="192" style="fill:#FF9B5F;" width="25.815" height="305.479"/>
	<path style="fill:#FF9B5F;" d="M228.571,20.975c7.129,0,12.908,5.778,12.908,12.908l21.717,138.354h-58.288l10.756-71.666V33.881
		C215.664,26.753,221.442,20.975,228.571,20.975z"/>
</g>
<path style="fill:#FEBB8E;" d="M293.109,46.79c0-7.129,5.778-12.908,12.908-12.908c7.128,0,12.908,5.778,12.908,12.908v75.294
	l-58.391,41.343L293.109,46.79z"/>
<path style="fill:#FF9B5F;" d="M264.067,33.882c0-7.129,5.779-12.908,12.908-12.908c7.129,0,12.908,5.778,12.908,12.908v138.354
	H242.35L264.067,33.882z"/>
<path style="fill:#FEBB8E;" d="M254.387,8.067c7.129,0,12.908,5.779,12.908,12.908v149.214h-25.815V20.974
	C241.479,13.846,247.257,8.067,254.387,8.067z"/>
<path style="fill:#FEAB75;" d="M215.664,122.084l-21.513,43.025l66.689,85.729c32.612-3.238,58.084-30.75,58.084-64.215
	c0-35.643,0-64.538,0-64.538h-103.26V122.084z"/>
<path style="fill:#FEBB8E;" d="M254.387,247.933c2.178,0,4.33-0.112,6.454-0.323v-40.549c0-24.951-20.225-45.18-45.176-45.18V97.343
	c0-7.129-5.779-12.909-12.908-12.909c-7.129,0-12.908,5.779-12.908,12.909v86.05C189.849,219.038,218.743,247.933,254.387,247.933z"
	/>
<g>
	<path style="fill:#1D2328;" d="M244.706,130.064c4.456,0,8.067-3.612,8.067-8.067V8.067c0-4.455-3.611-8.067-8.067-8.067
		s-8.067,3.612-8.067,8.067v113.93C236.639,126.452,240.25,130.064,244.706,130.064z"/>
	<path style="fill:#1D2328;" d="M289.925,130.064c4.456,0,8.067-3.612,8.067-8.067V22.739c0-4.455-3.611-8.067-8.067-8.067
		c-4.455,0-8.067,3.612-8.067,8.067v99.257C281.858,126.452,285.469,130.064,289.925,130.064z"/>
	<path style="fill:#1D2328;" d="M225.839,153.654V26.125c0-4.455-3.611-8.067-8.067-8.067s-8.067,3.612-8.067,8.067V161.12
		c0,4.455,3.611,8.067,8.067,8.067c20.884,0,37.876,16.993,37.876,37.879c0,4.455,3.611,8.067,8.067,8.067
		c4.456,0,8.067-3.612,8.067-8.067C271.783,180.024,251.807,157.559,225.839,153.654z"/>
	<path style="fill:#1D2328;" d="M319.01,30.851c-4.456,0-8.067,3.612-8.067,8.067v145.909c0,20.128-10.837,38.902-28.282,48.994
		c-3.856,2.231-5.174,7.167-2.943,11.023c1.496,2.585,4.205,4.029,6.991,4.029c1.37,0,2.76-0.351,4.033-1.085
		c0.646-0.374,1.284-0.759,1.916-1.152v257.296c0,4.455,3.611,8.067,8.067,8.067s8.067-3.612,8.067-8.067V232.993
		c11.582-13.124,18.286-30.223,18.286-48.166V38.918C327.078,34.463,323.467,30.851,319.01,30.851z"/>
	<path style="fill:#1D2328;" d="M226.111,233.822c-17.445-10.092-28.282-28.865-28.282-48.994V88.232
		c0-4.455-3.611-8.067-8.067-8.067s-8.067,3.612-8.067,8.067v96.596c0,24.282,12.268,47.028,32.309,60.45v258.655
		c0,4.455,3.611,8.067,8.067,8.067c4.456,0,8.067-3.612,8.067-8.067V240.806C230.139,237.925,228.604,235.264,226.111,233.822z"/>
	<path style="fill:#1D2328;" d="M84.221,261.864c4.456,0,8.067-3.612,8.067-8.067v-116.08c0-4.455-3.611-8.067-8.067-8.067
		c-4.456,0-8.067,3.612-8.067,8.067v116.08C76.154,258.252,79.764,261.864,84.221,261.864z"/>
	<path style="fill:#1D2328;" d="M130.516,261.864c4.456,0,8.067-3.612,8.067-8.067v-101.53c0-4.455-3.611-8.067-8.067-8.067
		c-4.456,0-8.067,3.612-8.067,8.067v101.53C122.449,258.252,126.06,261.864,130.516,261.864z"/>
	<path style="fill:#1D2328;" d="M65.354,280.076V152.548c0-4.455-3.611-8.067-8.067-8.067s-8.067,3.612-8.067,8.067v134.994
		c0,4.455,3.611,8.067,8.067,8.067c20.884,0,37.876,16.993,37.876,37.879c0,4.455,3.611,8.067,8.067,8.067
		c4.456,0,8.067-3.612,8.067-8.067C111.298,306.447,91.322,283.983,65.354,280.076z"/>
	<path style="fill:#1D2328;" d="M157.45,159.426c-4.456,0-8.067,3.612-8.067,8.067v146.985c0,20.128-10.837,38.902-28.282,48.994
		c-3.856,2.231-5.175,7.166-2.943,11.023c1.496,2.585,4.205,4.029,6.991,4.029c1.37,0,2.76-0.351,4.033-1.086
		c0.646-0.374,1.284-0.759,1.916-1.152v125.496c0,4.455,3.611,8.067,8.067,8.067s8.067-3.612,8.067-8.067V362.642
		c11.583-13.123,18.286-30.223,18.286-48.165V167.493C165.517,163.038,161.905,159.426,157.45,159.426z"/>
	<path style="fill:#1D2328;" d="M65.626,361.32c-17.445-10.093-28.282-28.866-28.282-48.994v-87.991
		c0-4.455-3.612-8.067-8.067-8.067c-4.456,0-8.067,3.612-8.067,8.067v87.991c0,24.281,12.268,47.027,32.309,60.449V499.63
		c0,4.455,3.611,8.067,8.067,8.067c4.455,0,8.067-3.612,8.067-8.067V368.303C69.654,365.424,68.119,362.763,65.626,361.32z"/>
	<path style="fill:#1D2328;" d="M426.704,197.327c4.456,0,8.067-3.612,8.067-8.067V72.605c0-4.455-3.611-8.067-8.067-8.067
		c-4.456,0-8.067,3.612-8.067,8.067v116.654C418.636,193.715,422.248,197.327,426.704,197.327z"/>
	<path style="fill:#1D2328;" d="M379.958,197.328c4.456,0,8.067-3.612,8.067-8.067V86.05c0-4.455-3.611-8.067-8.067-8.067
		c-4.456,0-8.067,3.612-8.067,8.067v103.21C371.891,193.716,375.503,197.328,379.958,197.328z"/>
	<path style="fill:#1D2328;" d="M462.78,223.004V85.859c0-4.455-3.611-8.067-8.067-8.067c-4.456,0-8.067,3.612-8.067,8.067v129.637
		c-11.776,1.65-22.58,6.909-31.02,15.216c-10.317,10.154-15.999,23.734-15.999,38.239c0,4.455,3.611,8.067,8.067,8.067
		c4.456,0,8.067-3.612,8.067-8.067c0-21.24,17.109-37.879,38.952-37.879C459.169,231.071,462.78,227.459,462.78,223.004z"/>
	<path style="fill:#1D2328;" d="M387.629,294.608c-4.262-2.431-8.125-5.375-11.536-8.721c-0.45-0.608-0.98-1.149-1.578-1.609
		c-9.563-10.169-15.124-23.67-15.124-37.853V103.493c0-4.455-3.611-8.067-8.067-8.067c-4.456,0-8.067,3.612-8.067,8.067v142.932
		c0,17.721,6.702,34.605,18.286,47.564v203.49c0,4.455,3.611,8.067,8.067,8.067c4.456,0,8.067-3.612,8.067-8.067V307.46
		c0.646,0.396,1.298,0.784,1.959,1.162c1.262,0.72,2.634,1.062,3.99,1.062c2.802,0,5.527-1.463,7.015-4.072
		C392.848,301.741,391.499,296.815,387.629,294.608z"/>
	<path style="fill:#1D2328;" d="M482.722,143.126c-4.456,0-8.067,3.612-8.067,8.067v94.445c0,20.128-10.837,38.902-28.282,48.994
		c-2.492,1.441-4.027,4.104-4.027,6.983v195.865c0,4.455,3.612,8.067,8.067,8.067c4.456,0,8.067-3.612,8.067-8.067V306.087
		c20.041-13.423,32.309-36.168,32.309-60.449v-94.445C490.79,146.737,487.179,143.126,482.722,143.126z"/>
</g>
<g>
</g>
<g>
</g>
<g>
</g>
<g>
</g>
<g>
</g>
<g>
</g>
<g>
</g>
<g>
</g>
<g>
</g>
<g>
</g>
<g>
</g>
<g>
</g>
<g>
</g>
<g>
</g>
<g>
</g>
</svg>
