<?xml version="1.0" standalone="no"?>
<!DOCTYPE svg PUBLIC "-//W3C//DTD SVG 20010904//EN"
 "http://www.w3.org/TR/2001/REC-SVG-20010904/DTD/svg10.dtd">
<svg version="1.0" xmlns="http://www.w3.org/2000/svg"
 width="311.000000pt" height="350.000000pt" viewBox="0 0 311.000000 350.000000"
 preserveAspectRatio="xMidYMid meet">

<g transform="translate(0.000000,350.000000) scale(0.100000,-0.100000)"
fill="#000000" stroke="none">
<path d="M1954 3325 c-13 -13 -33 -29 -44 -35 -27 -14 -25 -29 7 -62 15 -15
21 -28 14 -28 -6 0 -23 12 -36 28 -21 23 -26 25 -35 12 -14 -22 -12 -65 5
-106 11 -28 19 -35 37 -32 24 3 26 -5 13 -54 -8 -31 -9 -30 70 -31 39 0 40 1
40 35 0 19 6 42 14 51 7 10 11 27 7 41 -3 13 1 36 8 52 8 16 18 57 22 92 l7
62 -52 0 c-42 0 -57 -5 -77 -25z"/>
<path d="M781 3265 c-30 -65 -58 -88 -49 -40 4 20 -1 30 -22 45 -35 25 -47 25
-60 1 -18 -35 -12 -88 12 -105 22 -16 22 -16 3 -31 -29 -21 -48 -18 -75 10
-17 18 -34 25 -60 25 -32 0 -41 -6 -68 -44 -36 -50 -39 -61 -16 -74 14 -8 12
-13 -15 -33 -26 -19 -29 -25 -16 -32 8 -4 15 -17 15 -29 0 -11 8 -26 17 -33
15 -11 14 -14 -10 -30 -35 -22 -77 -15 -175 31 -80 38 -82 38 -82 24 0 -6 20
-20 45 -32 25 -12 45 -26 45 -30 0 -4 5 -8 12 -8 6 0 19 -6 27 -13 9 -8 59
-19 111 -26 83 -11 96 -10 106 4 7 10 27 15 60 15 l49 0 -35 -21 c-33 -20 -33
-22 -15 -36 20 -14 63 -14 97 1 17 8 17 8 33 -67 2 -13 16 -36 30 -53 26 -30
29 -37 43 -114 10 -53 9 -211 -2 -228 -6 -11 0 -14 20 -11 11 1 24 -25 24 -48
0 -13 -4 -23 -8 -23 -10 0 -13 -38 -3 -44 4 -3 6 -34 4 -70 l-2 -65 52 -8 52
-8 6 50 c7 60 20 88 63 133 37 40 76 62 109 62 24 0 105 -52 120 -76 6 -10 16
-7 44 11 20 14 43 25 52 25 43 0 92 -23 119 -56 l29 -35 35 17 c50 23 118 12
163 -27 19 -17 37 -39 40 -49 5 -15 13 -18 38 -14 72 11 135 -67 139 -174 l3
-60 50 -6 c75 -10 297 -55 323 -66 60 -26 83 -145 39 -211 -12 -19 -39 -42
-60 -52 l-37 -19 -133 38 c-72 20 -137 39 -144 41 -7 3 -10 -3 -7 -15 3 -10 1
-68 -5 -128 -8 -87 -18 -131 -52 -219 -64 -170 -82 -248 -75 -325 11 -111 22
-137 56 -142 18 -3 30 0 29 6 -5 43 -1 46 70 46 49 0 72 -4 81 -15 9 -11 23
-14 45 -9 43 8 70 -18 79 -75 6 -43 61 -136 84 -146 7 -2 18 7 24 21 12 26 -3
91 -47 205 -16 40 -17 51 -6 77 16 37 105 130 167 172 49 34 51 40 28 76 -14
20 -15 30 -5 50 6 14 11 40 11 59 0 19 4 35 8 35 12 0 34 49 27 60 -3 5 5 14
17 21 13 7 33 23 45 36 12 12 31 23 43 23 23 0 27 15 5 24 -9 3 -15 19 -15 41
0 30 7 40 49 72 28 21 50 43 50 49 1 5 14 20 31 32 23 17 30 19 30 8 0 -8 -4
-18 -10 -21 -14 -9 -13 -52 2 -61 7 -4 16 0 22 10 6 10 39 48 74 83 61 62 63
66 46 84 -24 27 -34 24 -34 -10 0 -24 -6 -31 -32 -40 -27 -10 -35 -8 -65 14
-18 15 -33 33 -33 41 0 7 -7 14 -17 14 -15 0 -15 1 0 18 46 51 -7 62 -73 16
-28 -19 -50 -31 -50 -28 0 15 83 114 96 114 7 0 43 10 80 22 51 17 68 27 76
47 11 30 37 61 50 61 6 0 9 -33 8 -72 -1 -40 -2 -85 -1 -100 l1 -26 50 19 c56
21 74 24 65 9 -3 -5 -2 -10 4 -10 6 0 13 11 17 25 6 26 7 26 21 5 18 -25 33
-26 33 -1 0 28 -11 52 -21 45 -5 -3 -9 2 -9 10 0 9 -7 16 -15 16 -8 0 -15 7
-15 16 0 15 -10 14 -57 -3 -7 -3 -13 0 -13 7 0 7 -7 10 -15 6 -12 -4 -15 3
-15 33 0 57 -39 123 -78 133 -18 5 -32 13 -32 18 0 6 -10 10 -23 10 -13 0 -27
3 -31 8 -4 4 -24 12 -44 17 -24 7 -38 18 -42 32 -3 12 -35 49 -72 83 l-68 62
0 -39 c-1 -51 -20 -76 -53 -68 -24 6 -57 55 -57 84 0 6 -7 11 -15 11 -9 0 -33
12 -54 26 -34 22 -46 25 -85 19 -50 -8 -64 -19 -48 -38 18 -21 26 -106 12
-122 -11 -13 -9 -20 12 -43 26 -29 48 -73 48 -97 0 -8 -14 -30 -32 -50 -31
-36 -31 -36 -15 -71 21 -43 22 -84 2 -110 -15 -18 -17 -18 -48 19 -21 25 -36
57 -42 90 -10 51 -11 52 -49 55 -21 2 -57 15 -79 30 -22 15 -51 35 -66 44 -14
10 -38 18 -53 18 -24 0 -29 5 -34 39 -4 28 -12 41 -27 45 -17 4 -19 11 -14 46
6 46 62 140 83 140 8 0 19 11 24 25 5 14 21 30 35 37 23 10 45 57 45 96 0 14
26 16 35 2 3 -6 17 2 30 18 19 23 22 35 18 77 -3 28 -10 55 -14 61 -6 7 -3 17
8 25 13 11 17 12 21 1 3 -10 7 -8 17 5 13 17 14 17 34 -1 12 -11 21 -25 21
-32 0 -7 6 -11 13 -8 8 3 28 -8 46 -25 28 -26 30 -32 21 -57 -6 -16 -9 -38 -6
-50 5 -19 1 -24 -23 -29 -33 -7 -56 -29 -46 -45 8 -13 42 -13 50 0 12 19 40
10 78 -25 26 -24 45 -34 57 -30 10 3 21 1 25 -5 3 -5 23 -10 43 -10 l37 1 -27
24 c-36 31 -35 36 2 25 27 -8 30 -6 30 13 -1 28 -38 72 -68 82 -21 6 -48 42
-39 52 3 2 24 -5 46 -17 46 -23 52 -19 55 42 1 28 -3 34 -24 36 -14 2 -31 9
-38 14 -6 6 -27 14 -45 17 -25 6 -32 12 -31 29 0 12 -5 22 -12 22 -8 0 -11 6
-8 13 3 8 -7 19 -23 27 -99 47 -131 66 -153 90 -23 27 -28 28 -75 20 -31 -5
-52 -4 -56 2 -8 12 -48 -11 -54 -32 -14 -48 -16 -90 -6 -90 7 0 9 -4 6 -10 -3
-5 10 -19 29 -31 32 -18 36 -26 36 -60 0 -21 -4 -39 -10 -39 -5 0 -10 -9 -10
-20 0 -11 -4 -20 -9 -20 -11 0 -23 29 -16 41 3 5 1 18 -6 30 -9 17 -13 19 -20
8 -8 -11 -12 -10 -24 5 -8 11 -15 27 -15 37 0 9 -7 33 -15 53 -16 39 -11 86 9
86 14 0 38 45 29 54 -4 3 -19 6 -35 6 -25 0 -28 -4 -28 -31 0 -17 -8 -59 -17
-94 -16 -60 -16 -65 0 -83 22 -25 21 -48 -3 -79 l-20 -26 0 25 c0 13 4 28 9
34 6 5 3 18 -9 34 -18 24 -20 24 -37 8 -13 -14 -14 -21 -6 -29 9 -9 9 -18 2
-31 -15 -28 -67 -15 -105 27 -23 26 -36 33 -53 28 -18 -4 -21 -11 -17 -29 7
-25 -8 -34 -17 -10 -3 7 -23 16 -46 20 -43 7 -62 23 -41 36 17 10 5 40 -18 47
-9 2 -30 22 -45 44 -21 31 -32 39 -47 34 -16 -5 -18 -3 -13 11 5 13 2 15 -17
9 -21 -7 -22 -5 -17 22 5 23 2 29 -11 29 -55 0 -83 6 -94 18 -9 9 -20 11 -35
5 -20 -7 -24 -5 -29 19 -6 29 -30 81 -70 151 -14 25 -30 67 -35 95 -5 27 -10
50 -12 51 -1 0 -20 13 -43 28 -25 17 -54 27 -76 27 -19 0 -41 7 -48 15 -22 27
-38 16 -69 -50z m59 -819 c0 -3 -4 -8 -10 -11 -5 -3 -10 -1 -10 4 0 6 5 11 10
11 6 0 10 -2 10 -4z"/>
<path d="M1750 3150 c0 -11 7 -23 16 -27 8 -3 13 -12 10 -19 -3 -8 0 -11 10
-7 17 6 18 27 4 54 -14 25 -40 24 -40 -1z"/>
<path d="M1678 3153 c7 -3 16 -2 19 1 4 3 -2 6 -13 5 -11 0 -14 -3 -6 -6z"/>
<path d="M1646 3126 c7 -18 29 -21 39 -6 3 6 2 10 -4 10 -5 0 -17 3 -25 6 -12
5 -15 2 -10 -10z"/>
<path d="M1823 3108 c7 -17 19 -34 27 -36 12 -4 13 -2 3 10 -7 8 -10 18 -6 21
7 8 -15 37 -28 37 -5 0 -3 -14 4 -32z"/>
<path d="M1547 3117 c-34 -14 -30 -32 9 -33 28 -1 64 20 64 38 0 11 -38 8 -73
-5z"/>
<path d="M1583 3073 c-26 -5 -31 -34 -8 -53 8 -7 15 -19 15 -26 0 -22 106 -19
114 3 4 9 2 21 -4 27 -5 5 -10 18 -10 28 0 29 -16 21 -27 -14 l-10 -33 -16 38
c-9 20 -20 36 -24 36 -4 -1 -18 -4 -30 -6z"/>
<path d="M1730 3029 c0 -27 42 -65 68 -61 15 2 22 -2 22 -12 0 -9 7 -16 15
-16 24 0 17 36 -9 48 -13 6 -23 18 -23 28 2 14 -8 20 -35 25 -32 5 -38 3 -38
-12z"/>
<path d="M1820 3040 c0 -5 11 -17 25 -26 18 -11 23 -22 20 -38 -10 -40 8 -51
81 -48 75 2 89 10 79 42 -6 18 -13 21 -38 18 -18 -3 -40 -8 -49 -12 -13 -6
-22 -1 -34 21 -22 37 -84 69 -84 43z"/>
<path d="M1424 2996 c-34 -34 -41 -47 -37 -69 8 -38 17 -41 65 -16 31 16 39
18 30 6 -8 -9 -12 -24 -10 -34 1 -10 -1 -24 -5 -30 -5 -8 4 -20 25 -34 l33
-21 -37 5 c-31 5 -38 3 -38 -11 0 -10 9 -25 20 -35 11 -9 20 -23 20 -31 0 -19
50 -29 99 -21 28 5 41 2 51 -9 19 -23 50 -20 50 5 0 11 5 17 10 14 18 -11 11
21 -10 45 -22 26 -26 71 -9 119 6 18 9 34 6 37 -11 12 -47 -22 -54 -51 l-7
-30 -5 30 c-4 17 -11 30 -16 30 -27 1 -55 27 -55 51 0 25 -58 95 -76 93 -5 -1
-28 -20 -50 -43z"/>
<path d="M1750 2895 c-6 -8 -8 -20 -4 -26 5 -9 2 -10 -9 -6 -26 10 -21 -25 6
-51 13 -12 28 -22 34 -22 17 0 25 36 18 80 -7 41 -24 51 -45 25z"/>
<path d="M444 2798 c-9 -14 7 -28 29 -28 21 1 57 21 57 32 0 8 -81 4 -86 -4z"/>
<path d="M2130 2626 c0 -26 21 -29 41 -7 l20 21 -31 0 c-19 0 -30 -5 -30 -14z"/>
<path d="M1968 2463 c-3 -36 1 -52 14 -65 17 -17 18 -17 34 8 10 14 23 23 30
20 8 -4 21 -9 29 -12 8 -3 15 -1 15 5 0 10 -100 91 -112 91 -3 0 -8 -21 -10
-47z"/>
<path d="M2047 2373 c-4 -3 -7 -11 -7 -17 0 -6 5 -5 12 2 6 6 9 14 7 17 -3 3
-9 2 -12 -2z"/>
<path d="M2110 2334 c0 -8 5 -12 10 -9 6 3 10 10 10 16 0 5 -4 9 -10 9 -5 0
-10 -7 -10 -16z"/>
<path d="M756 2285 c-3 -9 -6 -31 -5 -48 l0 -32 16 38 c10 26 12 42 6 48 -7 7
-12 5 -17 -6z"/>
<path d="M1055 2217 c-2 -7 -6 -28 -7 -47 -2 -25 -9 -38 -25 -45 -18 -8 -23
-18 -23 -48 0 -38 23 -107 36 -107 4 0 23 18 42 41 34 40 37 41 84 37 l48 -5
-7 41 c-6 43 -36 110 -53 121 -6 3 -13 -1 -16 -9 -7 -19 -24 -21 -24 -3 0 18
-50 39 -55 24z"/>
<path d="M1271 2171 c-11 -21 -21 -62 -23 -92 -3 -49 -1 -53 22 -60 14 -4 62
-7 108 -8 l82 -1 0 31 c0 21 -9 39 -29 58 -16 15 -31 38 -33 51 -2 19 -11 26
-38 31 -19 4 -36 12 -38 18 -8 23 -32 9 -51 -28z"/>
<path d="M1512 2130 c-11 -18 -23 -53 -27 -77 -6 -41 -4 -48 20 -71 36 -33 55
-80 58 -146 l2 -55 27 26 c18 17 38 57 55 108 l26 82 -22 22 c-18 18 -21 29
-16 60 7 45 -14 69 -68 78 -32 5 -38 2 -55 -27z"/>
<path d="M491 2076 c10 -8 256 -136 263 -136 5 0 5 11 2 24 -4 15 -1 26 6 28
6 2 -4 10 -23 17 -98 36 -124 49 -121 59 1 8 -19 12 -65 12 -36 0 -64 -2 -62
-4z"/>
<path d="M733 2073 c15 -2 39 -2 55 0 15 2 2 4 -28 4 -30 0 -43 -2 -27 -4z"/>
<path d="M776 2051 c-3 -5 1 -14 9 -21 8 -7 12 -16 9 -21 -3 -5 0 -9 5 -9 6 0
11 5 11 10 0 6 13 1 29 -11 16 -12 34 -18 40 -15 6 4 11 3 11 -1 0 -5 8 -9 18
-10 37 -3 56 -10 66 -26 18 -28 -3 -31 -72 -10 -112 35 -128 37 -128 13 0 -17
14 -25 81 -45 45 -14 86 -25 93 -25 7 0 12 -8 12 -17 1 -11 8 -5 19 16 19 35
14 75 -11 108 -10 12 -148 46 -156 38 -8 -8 -32 16 -26 26 3 5 3 9 0 9 -3 0
-7 -4 -10 -9z"/>
<path d="M1733 2048 c-17 -25 -85 -238 -80 -252 3 -8 22 -19 42 -26 73 -24
113 34 116 169 1 66 -2 85 -16 101 -21 23 -48 26 -62 8z"/>
<path d="M1430 1972 c0 -12 -50 -33 -61 -27 -14 9 -11 -99 3 -113 8 -8 8 -12
1 -12 -9 0 -46 42 -74 83 -4 6 -17 3 -30 -7 -34 -23 -51 -19 -74 17 -27 43
-43 44 -85 5 -19 -18 -38 -31 -42 -30 -9 2 -78 -115 -78 -133 0 -7 -14 -23
-30 -35 -31 -22 -77 -97 -71 -115 2 -5 3 -40 2 -77 l-2 -67 43 -6 c38 -6 51
-2 106 31 35 21 68 46 73 56 12 22 12 22 -41 3 -23 -8 -47 -15 -53 -15 -20 0
34 47 74 65 44 20 49 31 17 41 l-22 7 24 19 c17 14 24 32 28 69 3 28 10 53 17
55 7 3 40 -2 73 -10 175 -46 289 11 275 135 -4 37 -10 49 -30 58 -29 13 -43
14 -43 3z"/>
<path d="M826 1889 c-15 -59 -34 -102 -63 -147 -19 -30 -37 -68 -40 -85 -3
-18 -13 -42 -21 -54 -17 -28 -19 -103 -5 -240 l10 -102 46 -50 c47 -50 50 -60
62 -174 3 -32 14 -76 25 -97 24 -47 26 -80 5 -80 -23 0 -18 -11 26 -60 33 -37
39 -50 35 -76 -3 -24 3 -40 30 -74 19 -23 34 -47 34 -51 0 -5 7 -9 15 -9 21 0
19 26 -5 50 -11 11 -20 30 -20 43 0 30 -22 106 -59 206 -32 88 -39 135 -20
147 23 14 52 -33 56 -93 3 -42 10 -65 27 -83 28 -31 72 -120 68 -139 -2 -7 7
-25 20 -40 13 -14 30 -39 38 -54 l14 -28 18 35 c12 22 16 48 13 73 -27 222
-34 263 -60 323 -39 92 -88 177 -134 233 -23 27 -46 68 -52 90 -6 23 -15 47
-19 52 -4 6 -18 43 -30 83 -27 88 -23 136 15 194 27 40 55 129 55 172 0 17 -7
26 -24 30 -13 3 -31 9 -40 12 -9 3 -17 0 -20 -7z"/>
<path d="M2679 1847 c5 -5 19 -7 32 -5 20 3 19 5 -9 9 -20 3 -29 2 -23 -4z"/>
<path d="M2006 1811 c-47 -49 -62 -180 -25 -215 3 -3 53 -19 110 -35 l104 -30
42 19 c51 22 73 61 73 129 0 76 -32 106 -135 130 -143 33 -139 33 -169 2z
m122 -5 c35 -8 65 -16 68 -19 2 -2 -6 -11 -19 -20 -13 -8 -30 -29 -37 -46 -19
-47 -36 -37 -31 19 1 10 -5 8 -18 -7 -24 -28 -31 -29 -31 -3 0 23 -10 26 -28
8 -9 -9 -12 -9 -12 1 0 11 -3 11 -17 0 -15 -13 -16 -11 -9 16 7 31 39 65 60
65 6 -1 39 -7 74 -14z m141 -45 c20 -20 37 -93 26 -111 -5 -8 -11 -8 -20 0 -8
7 -23 9 -35 5 -15 -5 -20 -2 -20 12 0 14 -4 12 -18 -9 -22 -37 -32 -35 -32 4
0 25 -3 29 -12 20 -21 -21 -27 -13 -17 18 13 35 63 80 90 80 10 0 28 -9 38
-19z"/>
<path d="M1846 1813 c-4 -12 -23 -36 -42 -52 -41 -37 -87 -40 -150 -12 -27 12
-46 16 -55 10 -8 -5 -31 -8 -52 -7 -20 1 -42 -3 -49 -10 -7 -7 -21 -12 -32
-12 -53 0 17 -21 216 -66 119 -27 215 -51 213 -54 -2 -3 12 -5 31 -6 19 0 34
3 34 8 0 25 -46 45 -165 72 -190 42 -205 46 -205 56 0 15 23 12 61 -7 21 -10
59 -17 101 -17 37 0 68 -5 68 -10 0 -4 7 -3 15 4 12 10 15 9 15 -5 0 -15 2
-15 16 -4 9 8 18 9 22 3 7 -10 48 -11 58 -1 3 3 9 21 14 41 9 39 9 39 -62 50
-23 4 -38 13 -40 24 -3 14 -5 13 -12 -5z"/>
<path d="M2690 1712 c0 -5 7 -13 16 -16 25 -10 54 -7 54 5 0 6 -9 8 -20 4 -12
-4 -27 -1 -35 5 -9 8 -15 8 -15 2z"/>
<path d="M1717 1623 c-22 -12 -38 -12 -78 -4 -34 8 -56 8 -69 1 -10 -5 -32
-10 -49 -10 -22 0 -31 -5 -31 -17 0 -14 -3 -13 -23 5 -31 29 -39 28 -27 -4 14
-37 13 -39 -11 -18 -22 19 -22 19 -13 -6 15 -42 11 -264 -5 -284 -8 -9 -16
-15 -18 -13 -2 2 -5 44 -8 92 -2 48 -8 92 -14 98 -6 6 -11 21 -11 33 0 34 -21
84 -35 84 -8 0 -20 8 -27 19 -7 10 -27 21 -43 25 -26 6 -35 2 -62 -26 -17 -18
-39 -53 -49 -78 -10 -26 -38 -65 -67 -92 -42 -41 -46 -48 -28 -48 12 0 19 -4
16 -10 -3 -5 1 -10 10 -10 12 0 14 -8 9 -42 -6 -37 -5 -41 10 -35 25 10 40 -2
25 -19 -9 -11 -8 -14 8 -14 10 0 24 -5 31 -12 9 -9 15 -9 24 0 17 17 28 15 28
-6 0 -9 8 -22 19 -29 16 -10 22 -8 42 13 22 24 46 34 34 14 -6 -9 8 -15 29
-11 4 1 5 -10 2 -24 -6 -25 7 -35 19 -14 4 5 17 14 30 19 42 16 69 107 70 233
0 59 3 107 7 107 10 0 28 -96 28 -153 0 -81 -27 -176 -65 -234 -45 -67 -30
-68 29 -2 26 29 49 49 52 46 11 -11 -8 -49 -43 -88 l-35 -39 69 0 c145 0 157
4 224 84 45 54 58 77 55 96 -2 14 4 34 15 49 17 21 18 35 13 100 -5 65 -2 85
19 143 14 38 22 70 19 72 -6 3 -26 8 -82 20 -8 2 -28 -3 -43 -11z"/>
<path d="M1055 1464 c-22 -13 -33 -24 -25 -24 16 0 80 36 80 45 0 9 -14 4 -55
-21z"/>
<path d="M1470 1039 c-36 -5 -100 -19 -144 -31 l-78 -23 -3 -45 c-4 -67 -53
-364 -69 -413 -7 -23 -19 -61 -26 -85 l-13 -43 51 -52 c35 -35 97 -77 192
-130 131 -74 142 -78 171 -68 51 17 69 13 106 -24 l36 -36 26 25 c14 13 38 28
53 31 26 7 26 7 10 36 -15 26 -15 31 -2 39 8 5 32 10 53 10 28 0 44 6 58 22
10 14 18 18 19 10 0 -30 19 2 26 43 3 25 10 48 15 51 5 3 9 14 9 25 0 21 -16
23 -94 13 -44 -6 -48 -10 -72 -58 -14 -28 -29 -55 -34 -60 -5 -4 -41 -10 -81
-11 -70 -3 -74 -2 -104 28 -65 65 -97 236 -57 297 9 14 17 44 17 67 1 46 34
93 67 93 10 0 23 9 30 20 7 11 23 20 35 20 32 0 29 21 -12 70 -35 42 -43 64
-26 74 16 11 23 59 9 68 -10 6 -10 10 2 17 8 6 12 12 10 14 -11 10 -120 13
-180 6z"/>
</g>
</svg>
