<?xml version="1.0" standalone="no"?>
<!DOCTYPE svg PUBLIC "-//W3C//DTD SVG 20010904//EN"
 "http://www.w3.org/TR/2001/REC-SVG-20010904/DTD/svg10.dtd">
<svg version="1.0" xmlns="http://www.w3.org/2000/svg"
 width="230.000000pt" height="229.000000pt" viewBox="0 0 230.000000 229.000000"
 preserveAspectRatio="xMidYMid meet">

<g transform="translate(0.000000,229.000000) scale(0.100000,-0.100000)"
fill="#000000" stroke="none">
<path d="M925 2224 c-158 -28 -331 -102 -456 -195 -81 -59 -212 -195 -260
-269 -130 -198 -190 -399 -188 -640 0 -134 8 -185 28 -185 8 0 16 -6 19 -12 2
-7 -3 -13 -12 -13 -9 0 -16 -3 -16 -7 0 -30 83 -252 117 -313 43 -80 90 -143
78 -105 -17 52 -35 147 -30 155 14 22 22 6 38 -67 40 -184 111 -274 312 -395
519 -312 1200 -140 1513 383 120 201 177 450 154 671 -9 83 -45 255 -56 265
-1 2 -81 -13 -176 -32 -96 -19 -176 -33 -178 -31 -2 2 54 43 125 92 70 48 142
98 160 111 17 12 36 23 40 23 5 0 17 -25 28 -55 17 -50 31 -65 48 -49 6 6 -55
136 -76 162 -8 10 -15 8 -35 -10 -18 -17 -26 -19 -29 -10 -12 32 -127 174
-194 238 -162 155 -369 258 -592 294 -87 14 -267 11 -362 -6z m857 -295 c29
-11 55 -22 56 -24 6 -6 -152 -265 -162 -265 -4 0 -6 10 -3 23 3 12 13 82 23
155 10 72 21 132 26 132 4 0 31 -9 60 -21z m-694 -51 c5 -24 -78 -182 -156
-299 -80 -120 -200 -260 -263 -309 -32 -25 -23 -11 37 51 124 130 217 258 304
423 37 68 50 103 46 120 -3 13 -3 26 1 30 10 10 28 1 31 -16z m156 -226 c56
-158 89 -237 103 -247 27 -19 99 -223 86 -244 -7 -12 14 -81 74 -251 45 -129
82 -239 80 -244 -2 -5 -13 17 -26 50 -80 206 -441 1160 -441 1167 0 5 10 7 21
5 19 -3 34 -37 103 -236z m76 -385 c111 -296 200 -540 197 -543 -2 -2 -62 12
-133 31 -296 82 -598 117 -806 96 -66 -7 -124 -9 -128 -4 -9 9 -60 149 -60
163 0 5 34 32 75 60 245 166 467 416 596 673 23 44 44 76 49 71 5 -5 99 -251
210 -547z m177 113 c51 -23 62 -53 38 -103 -16 -34 -62 -85 -68 -76 -8 9 -67
176 -67 187 0 18 49 14 97 -8z m519 -216 c76 -14 140 -27 141 -28 6 -5 -43
-116 -52 -116 -9 0 -255 160 -255 166 0 8 29 4 166 -22z m-1686 -134 c0 -11
-141 -82 -187 -95 -51 -14 -17 13 70 57 95 48 117 55 117 38z m61 -111 c16
-41 28 -79 28 -85 1 -6 -18 -16 -41 -23 -24 -7 -67 -26 -97 -42 -29 -17 -55
-29 -56 -27 -9 9 -64 162 -60 167 12 11 181 89 189 87 6 -1 22 -36 37 -77z
m-272 -132 c35 -86 35 -87 22 -87 -8 0 -61 142 -61 164 0 17 8 1 39 -77z m67
-24 c10 -27 24 -55 31 -64 12 -14 11 -17 -3 -23 -9 -4 -18 -5 -19 -4 -3 5 -35
124 -35 131 0 18 10 3 26 -40z m238 12 c4 -10 -6 -20 -31 -30 -47 -20 -63 -19
-63 3 0 31 83 55 94 27z m-128 -67 c-9 -5 -24 -7 -34 -5 -14 3 -12 6 8 14 29
12 50 5 26 -9z m1243 -33 c14 -14 9 -45 -8 -45 -6 0 -17 13 -26 29 -8 16 -20
32 -27 35 -7 3 1 3 17 -1 17 -3 36 -11 44 -18z m-1175 -86 c-3 -5 29 -59 71
-120 41 -60 73 -114 71 -118 -3 -4 -26 -16 -52 -26 l-47 -18 -29 34 c-83 99
-150 320 -100 332 19 5 95 -69 86 -84z m-202 66 c0 -5 -5 -11 -11 -13 -6 -2
-11 4 -11 13 0 9 5 15 11 13 6 -2 11 -8 11 -13z"/>
</g>
</svg>
