<?xml version="1.0" standalone="no"?>
<!DOCTYPE svg PUBLIC "-//W3C//DTD SVG 20010904//EN"
 "http://www.w3.org/TR/2001/REC-SVG-20010904/DTD/svg10.dtd">
<svg version="1.0" xmlns="http://www.w3.org/2000/svg"
 width="230.000000pt" height="229.000000pt" viewBox="0 0 230.000000 229.000000"
 preserveAspectRatio="xMidYMid meet">

<g transform="translate(0.000000,229.000000) scale(0.100000,-0.100000)"
fill="#000000" stroke="none">
<path d="M915 2240 c-343 -74 -620 -288 -768 -593 -83 -170 -117 -314 -117
-498 0 -544 380 -997 920 -1100 88 -16 278 -16 370 0 466 82 828 436 915 893
20 106 20 311 0 414 -81 422 -397 761 -813 871 -135 36 -374 42 -507 13z
m-187 -452 c22 -22 13 -26 -63 -30 -86 -4 -111 -20 -125 -84 -12 -50 -12
-1037 -1 -1087 8 -33 7 -38 -7 -35 -10 2 -25 19 -35 38 -16 32 -17 77 -15 591
3 541 4 558 23 579 11 12 29 26 40 31 32 13 169 11 183 -3z m462 -3 c11 -13 8
-17 -19 -26 l-31 -11 0 -119 c0 -112 -1 -119 -20 -119 -31 0 -40 32 -40 145 0
58 5 115 10 126 13 24 81 27 100 4z m299 -10 c57 -27 64 -45 10 -26 -47 16
-131 14 -157 -5 -21 -14 -22 -22 -22 -163 0 -111 -3 -152 -14 -167 -13 -18
-30 -19 -236 -22 -190 -3 -225 -1 -246 13 -14 9 -22 20 -19 25 4 6 97 10 225
10 207 0 220 1 230 19 5 11 10 83 10 162 0 175 2 179 99 179 49 0 80 -7 120
-25z m-739 -190 c6 -152 17 -190 60 -212 18 -9 89 -13 252 -13 l226 0 31 26
31 26 0 147 c0 101 4 151 12 159 15 15 79 15 132 0 31 -9 67 -37 149 -118
l107 -107 0 -432 c0 -464 -2 -484 -52 -513 -18 -10 -131 -13 -554 -13 -509 0
-533 1 -553 19 -21 19 -21 22 -21 575 0 306 4 561 8 568 13 21 55 32 112 30
l55 -2 5 -140z m448 54 c3 -90 -2 -129 -18 -129 -6 0 -10 45 -10 111 0 84 3
110 13 107 8 -3 13 -33 15 -89z"/>
<path d="M728 1053 c-26 -7 -31 -36 -33 -193 -3 -164 8 -230 43 -263 23 -21
30 -22 290 -25 147 -2 282 0 301 3 18 4 44 17 57 30 24 24 24 27 24 209 0 181
-1 185 -24 213 l-24 28 -309 2 c-169 0 -316 -1 -325 -4z m634 -50 c16 -14 18
-34 18 -188 0 -162 -1 -173 -21 -191 -20 -18 -40 -19 -304 -19 -223 0 -285 3
-298 14 -9 7 -14 17 -11 22 3 5 129 9 279 9 l275 0 15 24 c14 21 16 51 13 185
-2 94 1 161 6 161 5 0 18 -7 28 -17z"/>
</g>
</svg>
