<?xml version="1.0" standalone="no"?>
<!DOCTYPE svg PUBLIC "-//W3C//DTD SVG 20010904//EN"
 "http://www.w3.org/TR/2001/REC-SVG-20010904/DTD/svg10.dtd">
<svg version="1.0" xmlns="http://www.w3.org/2000/svg"
 width="138.000000pt" height="137.000000pt" viewBox="0 0 138.000000 137.000000"
 preserveAspectRatio="xMidYMid meet">

<g transform="translate(0.000000,137.000000) scale(0.100000,-0.100000)"
fill="#000000" stroke="none">
<path d="M530 1294 c-130 -35 -262 -120 -338 -218 -191 -247 -175 -586 38
-810 120 -125 247 -184 416 -193 187 -10 338 44 468 167 79 75 125 146 164
248 23 60 26 81 26 202 0 121 -3 142 -26 202 -77 202 -241 352 -443 403 -75
19 -232 18 -305 -1z m130 -170 l0 -137 -82 6 c-91 6 -118 13 -118 31 0 21 57
131 86 165 30 36 80 71 102 71 9 0 12 -34 12 -136z m113 110 c57 -38 154 -200
133 -221 -9 -10 -89 -22 -143 -23 l-53 0 0 135 c0 151 1 152 63 109z m-253 -3
c0 -5 -7 -14 -15 -21 -19 -16 -58 -86 -80 -145 -20 -50 -14 -50 -112 -13 -29
11 -53 23 -53 28 0 17 97 91 165 125 71 35 95 42 95 26z m414 -21 c63 -30 176
-113 176 -129 0 -5 -24 -18 -52 -29 -99 -37 -92 -38 -118 24 -12 31 -38 79
-56 106 -19 28 -34 52 -34 54 0 10 27 2 84 -26z m-666 -189 c20 -10 56 -25 80
-32 39 -11 43 -15 38 -38 -3 -14 -11 -74 -18 -133 l-12 -108 -121 0 c-67 0
-124 2 -127 5 -10 10 12 126 35 182 24 58 73 143 83 143 2 0 21 -8 42 -19z
m911 -30 c18 -27 40 -74 51 -104 21 -59 40 -164 32 -172 -3 -3 -60 -5 -127 -5
l-122 0 -12 103 c-6 56 -14 116 -17 133 -5 29 -3 31 38 43 23 7 59 22 78 32
19 10 38 18 41 19 4 0 21 -22 38 -49z m-591 -47 l72 -7 0 -113 0 -114 -125 0
-125 0 0 53 c0 49 14 153 26 186 3 10 15 12 42 8 20 -3 70 -9 110 -13z m346
-1 c10 -35 26 -149 26 -190 l0 -43 -125 0 -125 0 0 114 0 114 88 9 c129 15
130 15 136 -4z m-566 -380 c7 -60 15 -120 18 -134 5 -23 1 -27 -38 -38 -24 -7
-61 -22 -82 -32 -22 -10 -41 -19 -42 -19 -1 0 -16 22 -34 50 -41 63 -80 179
-80 236 l0 44 123 0 123 0 12 -107z m292 -7 l0 -113 -82 -8 c-153 -15 -140
-19 -154 55 -7 36 -13 91 -13 123 l-1 57 125 0 125 0 0 -114z m300 74 c0 -51
-20 -183 -30 -199 -6 -10 -23 -11 -78 -2 -39 6 -87 11 -106 11 l-36 0 0 115 0
115 125 0 125 0 0 -40z m302 35 c7 -8 -10 -108 -28 -163 -9 -26 -31 -72 -50
-103 l-34 -56 -85 31 c-85 31 -86 31 -81 61 3 17 11 76 17 133 l12 102 122 0
c67 0 124 -2 127 -5z m-602 -410 c0 -152 -1 -154 -67 -106 -58 42 -142 183
-129 216 5 15 40 21 134 23 l62 2 0 -135z m243 116 c23 -23 -63 -177 -126
-222 -66 -48 -67 -46 -67 107 l0 137 91 -6 c51 -3 96 -10 102 -16z m-473 -67
c12 -31 38 -79 57 -106 18 -28 32 -53 30 -55 -18 -17 -243 118 -254 153 -3 10
106 62 133 64 6 0 21 -25 34 -56z m628 24 c28 -11 52 -23 52 -28 0 -11 -72
-69 -125 -102 -45 -27 -125 -61 -132 -55 -2 2 12 27 30 55 19 27 45 75 57 106
26 62 19 61 118 24z"/>
</g>
</svg>
