<?xml version="1.0" standalone="no"?>
<!DOCTYPE svg PUBLIC "-//W3C//DTD SVG 20010904//EN"
 "http://www.w3.org/TR/2001/REC-SVG-20010904/DTD/svg10.dtd">
<svg version="1.0" xmlns="http://www.w3.org/2000/svg"
 width="218.000000pt" height="218.000000pt" viewBox="0 0 218.000000 218.000000"
 preserveAspectRatio="xMidYMid meet">

<g transform="translate(0.000000,218.000000) scale(0.100000,-0.100000)"
fill="#000000" stroke="none">
<path d="M885 2109 c-281 -56 -528 -220 -678 -449 -59 -91 -93 -157 -86 -164
3 -3 92 -6 199 -6 l195 -2 6 30 c13 64 112 165 174 176 31 6 49 2 100 -24 57
-29 64 -30 110 -20 60 13 95 6 163 -32 49 -28 55 -29 103 -19 65 14 110 2 168
-44 30 -24 54 -35 76 -35 67 0 136 -79 152 -173 4 -27 11 -38 27 -42 11 -2 86
-15 165 -29 162 -28 225 -54 254 -104 17 -28 18 -38 7 -82 -14 -58 -52 -96
-107 -106 -30 -6 -244 25 -369 53 -19 4 -20 0 -20 -139 1 -151 -7 -198 -46
-258 -22 -34 -23 -42 -23 -302 0 -148 3 -268 8 -268 4 0 7 13 7 29 0 75 10 91
74 123 220 110 401 291 486 487 71 165 85 233 84 421 0 149 -3 173 -27 252
-33 108 -93 237 -140 303 -102 140 -282 284 -438 352 -139 61 -215 75 -404 79
-93 1 -192 -2 -220 -7z"/>
<path d="M672 1654 c-59 -30 -122 -122 -122 -178 0 -22 0 -22 -152 -18 -161 4
-179 -3 -83 -31 44 -13 50 -18 48 -40 -1 -17 6 -28 22 -35 20 -9 23 -9 18 3
-7 19 10 19 117 -3 66 -14 86 -22 88 -36 4 -17 -1 -18 -44 -11 -43 6 -47 5
-35 -9 12 -14 7 -33 -30 -129 -59 -150 -59 -190 -1 -311 32 -64 61 -105 107
-152 101 -103 135 -194 153 -418 6 -65 15 -123 21 -129 6 -6 11 -25 11 -41 0
-87 50 73 80 253 11 69 23 128 27 132 20 20 139 42 255 46 l127 5 13 -26 c9
-21 9 -34 -1 -62 -12 -33 -11 -38 11 -62 55 -61 55 -58 -14 -93 l-63 -33 55
-13 c30 -7 77 -16 104 -19 l49 -7 -5 152 c-4 98 -10 156 -18 166 -9 10 -9 15
-1 15 6 0 11 9 11 21 0 12 11 34 25 50 13 16 29 46 36 67 15 50 25 272 11 272
-16 0 -29 -72 -24 -131 3 -42 0 -58 -12 -68 -9 -7 -16 -26 -16 -41 0 -20 -16
-42 -62 -87 l-63 -60 -109 -6 c-60 -4 -111 -6 -112 -4 -2 2 15 25 37 51 22 27
38 51 35 53 -6 7 -48 -17 -70 -39 -10 -11 -20 -17 -22 -15 -3 3 14 51 37 108
43 109 46 140 18 204 -12 29 -13 27 -19 -46 -10 -105 -24 -141 -75 -188 -52
-47 -58 -50 -49 -17 9 35 -39 45 -79 16 l-29 -22 -22 21 c-12 12 -34 21 -49
21 -16 0 -32 8 -39 20 -7 11 -23 20 -36 20 -19 0 -21 4 -16 26 5 18 1 31 -14
47 l-20 22 83 100 c46 55 93 104 105 109 16 7 30 3 62 -20 62 -43 91 -106 96
-210 3 -57 8 -84 16 -81 24 8 35 55 35 148 -1 123 5 143 38 134 15 -3 31 -1
40 7 11 9 67 15 177 18 89 3 154 9 146 12 -8 4 -85 19 -170 33 -194 32 -205
34 -194 45 10 9 157 41 163 34 2 -2 -2 -10 -8 -18 -7 -8 -8 -17 -3 -20 5 -3
72 -15 148 -26 76 -11 155 -28 174 -37 l35 -17 -30 -7 c-20 -4 -23 -7 -10 -8
11 -1 30 -4 43 -7 20 -6 22 -4 14 17 -12 31 11 145 34 170 15 17 14 18 -23 24
-114 21 -107 17 -114 67 -15 99 -63 158 -130 158 -31 0 -48 8 -78 36 -53 47
-97 59 -166 43 -52 -12 -55 -11 -102 19 -81 51 -170 52 -184 1 -5 -20 -7 -21
-14 -7 -9 23 -94 76 -131 83 -17 3 -42 -1 -62 -11z m62 -69 c14 -11 22 -11 37
-2 22 13 19 17 51 -58 30 -65 28 -78 -7 -69 -33 8 -87 -11 -115 -41 -30 -32
-44 -31 -58 0 -17 38 -15 69 8 98 12 14 25 40 31 57 12 33 24 37 53 15z m257
-10 c34 -12 52 -27 77 -64 56 -82 53 -86 -59 -86 -137 0 -144 9 -102 123 18
47 21 48 84 27z m269 -40 c25 -13 30 -22 30 -52 0 -22 8 -45 19 -57 18 -20 18
-23 1 -73 -19 -59 -60 -124 -74 -120 -5 2 -16 30 -23 63 -10 43 -23 68 -49 95
-35 36 -36 38 -24 76 27 84 57 101 120 68z m197 -97 c26 -25 30 -66 12 -149
-14 -62 -38 -89 -82 -89 -33 0 -77 23 -77 40 0 22 81 196 97 208 22 16 23 16
50 -10z m-905 -29 c53 -14 62 -34 12 -26 -65 11 -114 27 -114 38 0 11 25 8
102 -12z m586 -41 c7 -7 12 -31 12 -55 0 -33 -7 -50 -29 -75 l-29 -33 -99 0
c-54 0 -124 4 -155 9 -46 6 -59 5 -62 -5 -23 -84 -28 -107 -28 -125 0 -15 -18
-29 -67 -55 -51 -26 -61 -35 -44 -37 12 -2 39 1 60 7 20 6 41 7 45 3 12 -12
-133 -82 -169 -82 -58 0 -63 6 -63 77 0 74 16 111 66 156 20 16 44 46 54 67
19 37 90 109 130 130 24 13 70 0 70 -19 0 -21 37 -31 70 -20 30 11 34 9 72
-27 l41 -39 -6 51 -6 52 37 15 c46 19 84 21 100 5z m456 -149 c36 -10 38 -12
32 -42 -3 -17 -8 -32 -10 -34 -2 -3 -41 1 -86 8 l-81 12 32 33 c35 36 52 40
113 23z"/>
<path d="M91 1427 c-77 -238 -58 -516 50 -731 81 -159 182 -279 316 -375 84
-61 233 -141 260 -141 16 0 16 1 2 131 -19 197 -53 281 -149 379 -44 45 -73
87 -107 158 -63 129 -64 167 -5 314 24 59 41 112 37 118 -3 5 -19 10 -34 10
-16 0 -69 21 -117 46 -49 25 -116 60 -149 77 -96 50 -93 50 -104 14z"/>
<path d="M430 1330 c8 -5 22 -9 30 -9 10 0 8 3 -5 9 -27 12 -43 12 -25 0z"/>
<path d="M1730 1243 c-21 -8 -50 -34 -50 -45 0 -5 16 -16 35 -24 26 -11 41
-12 55 -4 16 9 20 8 20 -5 0 -8 4 -15 8 -15 9 0 72 63 72 72 0 5 -23 10 -100
23 -14 2 -32 1 -40 -2z"/>
<path d="M1856 1169 c-40 -41 -40 -42 -18 -50 12 -5 22 -16 22 -25 0 -16 2
-16 20 1 15 13 30 16 65 13 50 -6 50 -6 33 43 -24 70 -63 76 -122 18z"/>
<path d="M1508 1073 c6 -2 18 -2 25 0 6 3 1 5 -13 5 -14 0 -19 -2 -12 -5z"/>
</g>
</svg>
