<?xml version="1.0" standalone="no"?>
<!DOCTYPE svg PUBLIC "-//W3C//DTD SVG 20010904//EN"
 "http://www.w3.org/TR/2001/REC-SVG-20010904/DTD/svg10.dtd">
<svg version="1.0" xmlns="http://www.w3.org/2000/svg"
 width="230.000000pt" height="229.000000pt" viewBox="0 0 230.000000 229.000000"
 preserveAspectRatio="xMidYMid meet">

<g transform="translate(0.000000,229.000000) scale(0.100000,-0.100000)"
fill="#000000" stroke="none">
<path d="M1000 2260 c-236 -33 -471 -151 -640 -321 -437 -440 -437 -1141 0
-1579 l85 -85 3 34 c2 19 -4 87 -12 150 -9 64 -18 141 -21 171 -2 30 -15 100
-28 155 l-24 100 -84 5 -83 5 4 130 c8 213 6 311 -7 326 -12 15 -7 66 8 75 10
6 11 -9 13 -296 l1 -225 75 -3 c95 -4 100 -6 101 -39 0 -15 9 -59 20 -98 11
-38 22 -99 25 -135 2 -36 11 -111 19 -168 22 -149 20 -184 -10 -212 -32 -30
-24 -40 35 -40 39 0 70 -10 147 -49 201 -102 358 -136 578 -128 203 8 365 55
538 159 79 47 86 53 72 68 -8 9 -15 34 -15 56 0 21 1 53 1 69 3 320 5 405 12
411 9 9 11 -103 7 -401 0 -16 1 -50 3 -75 l2 -45 49 -3 c55 -4 76 9 56 33 -11
13 -3 25 53 84 123 131 213 293 264 477 26 92 28 113 28 284 0 171 -2 192 -28
284 -15 54 -45 137 -67 183 -22 47 -39 95 -38 106 1 12 -10 52 -25 89 -15 36
-27 71 -27 76 0 5 -16 20 -35 33 -26 18 -35 32 -37 59 -3 30 -7 35 -32 38 -39
5 -80 -33 -65 -60 6 -10 21 -23 34 -28 25 -9 43 -64 31 -95 -3 -8 2 -19 13
-24 19 -10 28 -71 10 -71 -9 0 -13 14 -10 37 1 7 -7 16 -17 22 -13 7 -18 18
-15 38 6 36 -12 83 -31 83 -19 0 -40 36 -32 55 3 9 -18 31 -56 60 -132 99
-276 168 -432 206 -94 23 -316 33 -416 19z m163 -212 c-7 -87 -32 -180 -77
-282 -14 -32 -26 -67 -26 -77 0 -10 -4 -21 -10 -24 -18 -11 -10 33 18 97 15
34 34 83 41 108 7 25 17 58 22 74 5 16 9 50 9 77 0 50 7 79 20 79 4 0 5 -24 3
-52z m47 20 c16 -21 17 -25 3 -51 -11 -22 -12 -32 -2 -43 9 -11 9 -24 0 -57
-7 -23 -18 -64 -26 -92 -7 -27 -29 -104 -49 -170 -31 -101 -37 -136 -38 -223
-1 -57 -5 -105 -10 -108 -4 -3 -5 -16 -2 -28 3 -13 1 -41 -5 -62 -37 -138 -32
-266 10 -279 24 -8 26 -79 5 -187 -8 -40 -12 -85 -9 -100 7 -36 -15 -228 -27
-243 -14 -17 61 -128 105 -155 39 -24 43 -30 19 -30 -8 0 -40 24 -69 54 l-54
54 6 -44 c6 -43 5 -44 -23 -44 l-29 0 -3 218 c-2 119 -3 262 -3 316 0 107 -12
158 -22 90 -4 -21 -9 -73 -12 -114 -3 -41 -11 -86 -16 -100 -5 -14 -15 -113
-22 -220 l-12 -195 -38 -3 -38 -3 14 28 c11 22 14 77 12 263 -3 273 -15 446
-27 390 -4 -19 -4 44 -1 140 9 235 8 258 -11 279 -9 9 -16 24 -16 31 0 19 23
-4 44 -44 l15 -30 11 28 c13 34 13 53 0 61 -5 3 -10 18 -11 33 0 15 -3 20 -6
12 -14 -42 -17 -43 -22 -10 -6 34 -7 35 -71 46 l-65 12 52 1 c28 1 63 -3 77
-9 16 -6 26 -6 26 0 0 5 -22 12 -50 16 -77 10 -64 43 23 59 46 9 61 37 46 87
-23 80 -2 138 50 138 45 0 64 -46 57 -133 l-7 -72 20 25 c10 14 29 36 40 49
12 13 21 30 21 36 0 11 24 72 51 130 18 40 42 141 46 195 6 87 12 95 43 58z
m800 -90 c0 -24 9 -40 34 -63 34 -30 86 -141 86 -182 0 -12 -22 -46 -50 -76
-42 -46 -50 -61 -50 -93 0 -22 -4 -45 -9 -53 -10 -15 -14 -14 -181 45 -52 18
-111 36 -131 40 l-37 6 -20 -61 -21 -61 25 -16 24 -16 -21 -19 c-12 -11 -27
-19 -33 -19 -7 0 -17 -20 -24 -45 -12 -45 -33 -53 -46 -18 -7 18 9 126 32 207
16 59 17 59 80 88 46 21 62 33 58 44 -3 8 4 24 16 36 18 18 19 26 11 52 -14
44 -9 124 9 142 8 8 29 17 46 19 41 5 76 -35 68 -77 -3 -15 -1 -30 3 -33 5 -3
2 -24 -7 -46 -15 -39 -15 -42 4 -56 12 -9 30 -12 49 -8 17 4 46 7 65 8 33 2
35 4 38 42 2 26 -1 43 -11 50 -8 6 -16 29 -18 50 -3 48 -15 75 -33 75 -8 0
-19 6 -25 14 -18 22 7 56 41 56 25 0 28 -4 28 -32z m-275 -130 c0 -35 4 -73 8
-85 5 -14 4 -23 -1 -23 -15 0 -30 51 -28 100 1 37 10 70 19 70 1 0 2 -28 2
-62z m-49 -19 c3 -6 -3 -23 -15 -37 -11 -15 -36 -49 -55 -77 -52 -78 -115
-144 -156 -165 -73 -37 -100 -104 -60 -150 24 -28 25 -48 4 -78 -11 -16 -13
-36 -9 -79 12 -105 11 -158 -1 -200 -8 -29 -8 -43 -1 -46 6 -2 11 -43 13 -101
1 -54 8 -129 14 -167 7 -39 9 -80 6 -93 -3 -13 -28 -40 -54 -59 -41 -29 -50
-42 -56 -75 -3 -22 -10 -42 -15 -44 -14 -5 -24 -68 -11 -68 6 0 18 -6 26 -14
8 -8 39 -20 69 -27 33 -7 55 -17 55 -26 0 -10 -22 -13 -95 -13 -79 0 -97 3
-102 16 -3 9 -1 25 5 35 16 25 15 91 -2 114 -13 18 -14 17 -31 -9 -12 -18 -23
-25 -36 -21 -45 15 -37 -99 11 -150 19 -20 20 -25 8 -25 -25 0 -75 47 -104 96
-21 36 -24 47 -14 59 7 8 21 15 31 15 10 0 26 11 36 25 10 14 32 41 50 61 45
50 64 121 56 214 -4 52 -12 84 -26 104 -13 19 -23 51 -25 87 -3 43 -8 58 -21
62 -16 4 -18 25 -18 213 -1 176 2 217 17 260 14 42 16 60 7 91 -12 48 -3 119
23 161 16 25 26 32 52 32 32 0 78 -32 78 -56 0 -6 7 -15 16 -18 12 -5 15 -14
10 -39 -15 -81 34 -73 143 22 86 76 131 126 131 145 0 13 20 36 31 36 4 0 11
-5 15 -11z m-71 -48 c-17 -17 -17 -13 2 37 6 16 6 16 11 -2 2 -10 -4 -26 -13
-35z m-1063 -22 c10 -12 25 -44 33 -71 20 -69 55 -111 108 -132 37 -14 66 -41
55 -51 -4 -4 -304 -53 -370 -60 -49 -6 -58 -5 -58 8 0 16 17 37 49 59 18 13
38 75 47 148 9 63 13 76 35 104 18 23 27 27 53 22 17 -3 39 -15 48 -27z m-124
-1 c-6 -13 -15 -45 -19 -73 -13 -84 -31 -155 -41 -155 -10 0 -1 65 13 92 5 9
9 34 9 55 0 21 9 53 20 71 22 36 37 44 18 10z m449 -83 c1 -52 -2 -95 -7 -95
-5 0 -9 8 -9 18 0 9 -3 45 -7 79 -5 45 -3 67 6 78 7 8 13 15 14 15 0 0 2 -43
3 -95z m308 10 c-17 -53 -19 -123 -6 -143 8 -13 -27 -133 -43 -149 -13 -14 -4
34 14 74 15 35 17 49 8 74 -13 37 -5 112 17 164 21 52 27 40 10 -20z m525 3
c0 -16 -3 -19 -11 -11 -6 6 -8 16 -5 22 11 17 16 13 16 -11z m-687 -53 c-3 -9
-8 -14 -10 -11 -3 3 -2 9 2 15 9 16 15 13 8 -4z m554 -77 c-8 -29 -20 -88 -27
-131 -11 -75 -11 -80 9 -101 12 -12 21 -27 21 -33 0 -6 -20 -76 -45 -155 -25
-78 -45 -146 -45 -149 0 -4 35 -17 78 -29 l78 -23 19 -196 c17 -179 26 -310
27 -384 1 -16 -7 -36 -16 -45 -16 -16 -17 -15 -9 8 11 32 8 164 -6 244 -12 74
-34 325 -29 345 2 9 -22 21 -77 38 -44 14 -81 26 -82 27 -1 1 20 73 48 161 43
137 48 160 35 167 -33 18 -37 44 -22 135 21 122 41 191 53 179 3 -2 -2 -28
-10 -58z m288 -26 c163 -61 197 -79 191 -100 -3 -9 -21 -75 -40 -147 -41 -154
-113 -396 -121 -403 -15 -16 -9 17 31 148 24 80 60 203 80 274 34 119 35 130
20 142 -22 16 -269 113 -307 121 -16 3 -29 10 -29 14 0 13 39 2 175 -49z
m-1553 -72 c-5 -32 -22 -42 -22 -12 0 14 17 42 25 42 1 0 0 -13 -3 -30z m391
13 c-7 -2 -21 -2 -30 0 -10 3 -4 5 12 5 17 0 24 -2 18 -5z m-60 -10 c-7 -2
-21 -2 -30 0 -10 3 -4 5 12 5 17 0 24 -2 18 -5z m-60 -10 c-7 -2 -21 -2 -30 0
-10 3 -4 5 12 5 17 0 24 -2 18 -5z m-123 -19 c-41 -7 -88 -12 -105 -12 -37 1
108 25 150 25 17 0 -4 -5 -45 -13z m-194 -31 c3 -18 -1 -23 -19 -22 -21 0 -21
1 -2 9 19 9 19 9 -2 16 -13 3 -20 11 -17 16 10 16 37 4 40 -19z m51 11 c-3 -3
-12 -4 -19 -1 -8 3 -5 6 6 6 11 1 17 -2 13 -5z m570 -39 c9 -25 -2 -27 -22 -5
-17 18 -17 20 -1 20 9 0 19 -7 23 -15z m1104 -374 c-5 -14 -19 -91 -31 -171
-12 -80 -28 -159 -35 -176 -10 -20 -17 -87 -21 -187 -6 -140 -5 -157 9 -163
33 -12 16 -25 -30 -22 l-48 3 0 40 c-1 22 -4 50 -8 62 -5 13 -3 24 3 28 8 5 9
73 5 232 l-7 225 23 -7 c13 -4 29 -10 36 -12 11 -4 26 37 84 232 l24 80 3 -69
c2 -38 -2 -81 -7 -95z m-801 -68 c0 -31 8 -60 24 -88 20 -33 25 -56 26 -120 3
-99 -5 -134 -36 -171 -20 -23 -23 -24 -14 -6 44 91 46 228 4 290 -18 26 -24
49 -24 88 0 30 5 54 10 54 6 0 10 -21 10 -47z m624 -63 c4 -5 -2 -39 -15 -77
-21 -62 -23 -87 -23 -288 l-1 -219 -35 -9 c-19 -5 -51 -11 -70 -14 l-35 -6 33
31 c17 16 33 38 33 49 4 55 -2 186 -10 243 -16 101 -33 318 -27 329 6 9 133
-24 150 -39z m-1108 15 l61 -7 -9 -52 c-10 -59 -23 -367 -19 -476 1 -60 6 -79
23 -97 12 -13 20 -25 17 -27 -9 -8 -76 -14 -86 -8 -11 7 -23 81 -23 139 1 18
-6 54 -14 80 -15 52 -31 145 -50 287 -19 150 -33 119 -40 -91 -4 -103 -11
-226 -16 -273 -5 -47 -7 -95 -4 -106 6 -24 -15 -34 -73 -34 -37 0 -43 14 -13
30 25 13 26 69 5 215 -14 104 -20 183 -14 200 2 6 -2 19 -8 30 -12 23 -43 154
-43 184 0 19 5 20 123 16 67 -2 149 -6 183 -10z m145 -22 c16 -43 19 -541 3
-582 -18 -43 -11 -53 34 -47 34 5 33 4 -6 -6 -55 -14 -67 -3 -49 43 11 27 14
89 11 298 -2 145 -6 272 -9 282 -4 12 -16 19 -31 19 -13 0 -24 5 -24 10 0 6
14 10 30 10 24 0 33 -6 41 -27z m-236 -268 c10 -55 22 -120 27 -145 6 -25 10
-66 9 -92 0 -27 4 -48 9 -48 6 0 10 -22 10 -50 0 -48 1 -49 35 -56 19 -3 44
-4 55 -1 11 3 18 1 14 -4 -6 -10 -84 -12 -108 -3 -12 4 -16 20 -16 53 0 26 -3
51 -7 55 -5 4 -9 27 -9 49 -1 23 -11 92 -23 152 -22 109 -40 299 -22 225 5
-19 17 -80 26 -135z m390 -112 l3 -228 33 -7 c31 -5 30 -6 -9 -5 l-44 2 -2
243 c-2 162 0 240 7 233 6 -6 11 -102 12 -238z m143 2 c-6 -14 -15 -25 -20
-25 -9 0 -4 14 15 38 15 19 18 14 5 -13z m98 -50 c3 -13 1 -39 -5 -56 -6 -18
-11 -43 -11 -55 0 -22 4 -24 63 -26 34 -1 82 -2 107 -1 42 1 43 1 15 -8 -36
-12 -184 -4 -199 11 -7 7 -6 26 3 60 7 28 10 62 7 75 -4 14 -2 25 4 25 5 0 12
-11 16 -25z m-61 -15 c3 -5 2 -10 -4 -10 -5 0 -13 5 -16 10 -3 6 -2 10 4 10 5
0 13 -4 16 -10z m476 -173 c15 4 20 3 15 -5 -9 -15 -53 -16 -61 -2 -4 6 -4 19
0 28 6 15 8 14 15 -5 7 -16 14 -20 31 -16z m112 16 c-7 -2 -21 -2 -30 0 -10 3
-4 5 12 5 17 0 24 -2 18 -5z"/>
<path d="M873 1200 c0 -30 2 -43 4 -27 2 15 2 39 0 55 -2 15 -4 2 -4 -28z"/>
<path d="M863 1050 c0 -36 2 -50 4 -32 2 17 2 47 0 65 -2 17 -4 3 -4 -33z"/>
<path d="M1330 1476 c0 -2 8 -10 18 -17 15 -13 16 -12 3 4 -13 16 -21 21 -21
13z"/>
<path d="M1274 1367 c0 -45 -4 -95 -8 -112 -3 -17 3 -8 14 18 16 38 19 60 14
100 -11 84 -19 81 -20 -6z"/>
</g>
</svg>
